Coordinates
version=1
nRows=17
nColumns=63
inDegrees=yes

Units are S.I. units (second, meters, Newtons, ...)
If the header above contains a line with 'inDegrees', this indicates whether rotational values are in degrees (yes) or radians (no).

endheader
time	pelvis_tilt	pelvis_list	pelvis_rotation	pelvis_tx	pelvis_ty	pelvis_tz	hip_flexion_r	hip_adduction_r	hip_rotation_r	knee_angle_r	knee_angle_r_beta	ankle_angle_r	subtalar_angle_r	mtp_angle_r	hip_flexion_l	hip_adduction_l	hip_rotation_l	knee_angle_l	knee_angle_l_beta	ankle_angle_l	subtalar_angle_l	mtp_angle_l	L5_S1_Flex_Ext	L5_S1_Lat_Bending	L5_S1_axial_rotation	L4_L5_Flex_Ext	L4_L5_Lat_Bending	L4_L5_axial_rotation	L3_L4_Flex_Ext	L3_L4_Lat_Bending	L3_L4_axial_rotation	L2_L3_Flex_Ext	L2_L3_Lat_Bending	L2_L3_axial_rotation	L1_L2_Flex_Ext	L1_L2_Lat_Bending	L1_L2_axial_rotation	L1_T12_Flex_Ext	L1_T12_Lat_Bending	L1_T12_axial_rotation	Abs_r3	Abs_r2	Abs_r1	Abs_t1	Abs_t2	neck_flexion	neck_bending	neck_rotation	arm_flex_r	arm_add_r	arm_rot_r	elbow_flex_r	pro_sup_r	wrist_flex_r	wrist_dev_r	arm_flex_l	arm_add_l	arm_rot_l	elbow_flex_l	pro_sup_l	wrist_flex_l	wrist_dev_l
2.244898	-17.086678	-43.941527	75.640839	0.251992	0.816233	0.651203	51.392025	-6.044929	4.965579	12.990213	0.226722	24.562709	9.678697	0.000000	45.909919	4.058949	-8.492101	4.197942	0.073268	15.825499	-4.712706	0.000000	-0.352865	-1.970132	-0.005846	-0.655306	-2.620276	-0.006212	-0.579723	-4.790180	-0.006212	-0.403290	-4.790180	-0.005116	-0.327671	-4.017494	-0.004750	-0.201627	-3.051735	-0.004385	-2.520482	-22.286531	-0.032516	0.000000	0.000000	24.903298	9.461954	-15.858103	18.141842	-10.106718	69.247241	132.503541	89.343656	14.531132	27.444661	10.187172	-25.082077	47.759315	21.870279	79.301692	-23.645857	-10.633606
2.265306	-17.659551	-43.126784	75.279559	0.254063	0.817937	0.647677	50.450417	-6.428476	4.992930	12.974043	0.226440	24.616095	9.843239	0.000000	44.872046	4.390636	-9.277746	4.139819	0.072253	15.551721	-3.737972	0.000000	-0.304163	-2.058583	-0.020063	-0.564861	-2.737916	-0.021317	-0.499709	-5.005239	-0.021317	-0.347628	-5.005239	-0.017556	-0.282446	-4.197863	-0.016302	-0.173799	-3.188745	-0.015048	-2.172604	-23.287105	-0.111587	0.000000	0.000000	25.585644	10.255999	-16.612868	17.868599	-9.181448	68.810905	132.724898	89.119444	13.096401	26.493269	11.522405	-24.467633	56.896053	19.947412	72.467610	-22.821536	-10.289202
2.285714	-17.839899	-42.256033	75.386971	0.255427	0.819986	0.643276	49.205539	-6.755314	5.012129	12.742208	0.222393	24.537566	9.533235	0.000000	43.729544	4.676728	-9.557528	4.140368	0.072263	15.276369	-2.999607	0.000000	-0.238943	-2.103526	-0.049139	-0.443742	-2.797690	-0.052210	-0.392560	-5.114513	-0.052210	-0.273088	-5.114513	-0.042997	-0.221883	-4.289511	-0.039925	-0.136532	-3.258362	-0.036854	-1.706748	-23.795509	-0.273296	0.000000	0.000000	26.261904	10.636508	-17.386303	17.469619	-8.513201	68.250910	133.051312	88.830504	11.529079	25.449663	12.574955	-23.501731	66.669817	18.003523	64.924917	-21.608698	-9.894510
2.306122	-17.640877	-41.294287	75.896811	0.256052	0.822408	0.637966	47.597996	-6.994870	5.265753	12.233165	0.213509	24.201856	8.498277	0.000000	42.419549	4.889101	-9.448616	4.154274	0.072506	15.034731	-2.386709	0.000000	-0.161914	-2.102788	-0.083630	-0.300690	-2.796708	-0.088857	-0.266008	-5.112718	-0.088857	-0.185051	-5.112718	-0.073176	-0.150353	-4.288005	-0.067950	-0.092517	-3.257218	-0.062723	-1.156532	-23.787156	-0.465127	0.000000	0.000000	26.887698	10.534134	-18.117355	16.998116	-8.133051	67.648312	133.456145	88.525538	9.817544	24.251659	13.368172	-22.246865	76.751032	16.047549	56.865667	-20.001938	-9.668449
2.326531	-17.072580	-40.234723	76.797151	0.255911	0.825249	0.631764	45.616546	-7.138341	5.712339	11.435943	0.199595	23.599381	6.817243	0.000000	40.930798	5.022249	-8.956101	4.168471	0.072754	14.796458	-1.948155	0.000000	-0.074513	-2.055780	-0.122239	-0.138378	-2.734187	-0.129878	-0.122418	-4.998423	-0.129878	-0.085161	-4.998423	-0.106959	-0.069193	-4.192146	-0.099319	-0.042577	-3.184403	-0.091679	-0.532240	-23.255391	-0.679854	0.000000	0.000000	27.438822	10.001588	-18.660131	16.458329	-8.009582	67.000161	133.934629	88.236366	8.120823	22.982744	13.946049	-20.720381	87.601076	14.032359	48.319188	-18.194595	-9.535932
2.346939	-16.190755	-39.061751	78.017109	0.255063	0.828571	0.624764	43.272710	-7.185189	6.387743	10.369183	0.180976	22.711537	4.523470	0.000000	39.250518	5.077984	-8.154870	4.173629	0.072844	14.544778	-1.668924	0.000000	0.019068	-1.967279	-0.167639	0.035410	-2.616481	-0.178117	0.031326	-4.783242	-0.178117	0.021792	-4.783242	-0.146684	0.017706	-4.011675	-0.136207	0.010895	-3.047315	-0.125729	0.136198	-22.254254	-0.932359	0.000000	0.000000	27.894692	9.230195	-18.801342	15.913558	-8.091269	66.367244	134.461245	87.982432	6.468920	21.647802	14.321322	-18.945275	98.996764	11.963809	39.757662	-16.178876	-9.362262
2.367347	-15.123062	-37.763290	79.360258	0.253731	0.832409	0.617122	40.636849	-7.117901	7.323448	9.114602	0.159080	21.565026	1.773697	0.000000	37.352403	5.050266	-7.175528	4.107628	0.071692	14.241309	-1.566919	0.000000	0.114461	-1.850289	-0.196706	0.212566	-2.460884	-0.209000	0.188048	-4.498792	-0.209000	0.130818	-4.498792	-0.172117	0.106289	-3.773109	-0.159823	0.065403	-2.866097	-0.147529	0.817584	-20.930836	-1.094017	0.000000	0.000000	28.229109	8.394774	-18.547310	15.336330	-8.306504	65.690634	135.005062	87.773483	4.915250	20.313808	14.678239	-17.019597	111.409983	9.760291	31.437518	-14.212302	-9.044400
2.387755	-13.942435	-36.335241	80.738172	0.252037	0.836769	0.609044	37.771554	-6.939976	8.527855	7.743336	0.135147	20.176054	-1.353873	0.000000	35.259656	4.948919	-6.110912	3.981750	0.069495	13.868195	-1.621408	0.000000	0.207346	-1.712268	-0.215369	0.385061	-2.277317	-0.228830	0.340648	-4.163209	-0.228830	0.236975	-4.163209	-0.188448	0.192541	-3.491658	-0.174988	0.118477	-2.652304	-0.161527	1.481049	-19.369522	-1.197820	0.000000	0.000000	28.437602	7.648236	-17.798380	14.805542	-8.601898	64.992892	135.531700	87.613568	3.479432	19.031483	15.003566	-14.987277	124.262390	7.521246	23.869662	-12.169250	-8.494259
2.408163	-12.724798	-34.789984	82.047335	0.250026	0.841615	0.600740	34.826295	-6.721076	9.372087	6.456709	0.112691	18.779711	-3.858564	0.000000	33.009513	4.797069	-5.132081	3.801196	0.066343	13.415469	-1.724686	0.000000	0.295463	-1.559195	-0.215666	0.548705	-2.073729	-0.229145	0.485416	-3.791027	-0.229145	0.337685	-3.791027	-0.188708	0.274367	-3.179510	-0.175229	0.168828	-2.415193	-0.161750	2.110464	-17.637925	-1.199471	0.000000	0.000000	28.525407	7.012316	-16.605938	14.365910	-8.963767	64.278402	136.021204	87.506084	2.192220	17.914787	15.383995	-12.899859	137.446818	5.268898	17.116956	-10.416409	-7.848250
2.428571	-11.478950	-33.149589	83.276212	0.247821	0.846859	0.592352	31.815044	-6.435730	10.220171	5.226970	0.091228	17.285655	-6.274098	0.000000	30.644457	4.596848	-4.216074	3.600180	0.062835	12.863373	-1.939636	0.000000	0.375869	-1.394673	-0.198359	0.698027	-1.854915	-0.210756	0.617516	-3.391007	-0.210756	0.429581	-3.391007	-0.173564	0.349032	-2.844016	-0.161167	0.214772	-2.160348	-0.148769	2.684796	-15.776816	-1.103212	0.000000	0.000000	28.522240	6.423243	-15.153173	14.060190	-9.386028	63.579570	136.453276	87.455484	1.096731	17.024708	15.754688	-10.829615	150.147401	3.203665	11.429752	-9.212092	-7.272361
2.448980	-10.224001	-31.449816	84.416699	0.245491	0.852365	0.584018	28.795542	-6.092155	11.034229	4.088243	0.071353	15.733363	-8.567768	0.000000	28.212493	4.353704	-3.366551	3.404258	0.059416	12.185709	-2.289765	0.000000	0.446770	-1.223124	-0.160377	0.829697	-1.626755	-0.170401	0.733998	-2.973903	-0.170401	0.510613	-2.973903	-0.140330	0.414871	-2.494194	-0.130307	0.255284	-1.894619	-0.120283	3.191233	-13.836220	-0.891971	0.000000	0.000000	28.484261	5.800874	-13.687552	13.882598	-9.872740	62.897757	136.829769	87.464654	0.234836	16.357361	16.118667	-8.838308	161.797989	1.453825	6.828670	-8.703274	-6.943386
2.469388	-9.137853	-29.693751	85.305215	0.243192	0.857930	0.575850	25.891290	-5.764289	11.625038	3.178132	0.055469	14.298496	-10.313980	0.000000	25.726453	4.127158	-2.619655	3.180750	0.055515	11.351204	-2.853184	0.000000	0.510790	-1.063803	-0.098858	0.948588	-1.414858	-0.105037	0.839177	-2.586531	-0.105037	0.583782	-2.586531	-0.086501	0.474320	-2.169307	-0.080322	0.291866	-1.647831	-0.074144	3.648523	-12.033954	-0.549821	0.000000	0.000000	28.432681	5.055384	-12.456084	13.827073	-10.344631	62.230387	137.151469	87.537568	-0.298327	15.921693	16.287141	-6.993039	171.227301	0.252893	3.638578	-8.741046	-7.119901
2.489796	-8.174170	-27.907774	86.037298	0.240949	0.863451	0.567978	23.103293	-5.443341	11.992765	2.479016	0.043267	13.011984	-11.627374	0.000000	23.232217	3.908044	-1.924434	2.978390	0.051983	10.412910	-3.589545	0.000000	0.564905	-0.916500	-0.018985	1.049085	-1.218945	-0.020171	0.928082	-2.228379	-0.020171	0.645630	-2.228379	-0.016612	0.524571	-1.868927	-0.015425	0.322787	-1.419659	-0.014238	4.035060	-10.367633	-0.105587	0.000000	0.000000	28.402356	4.144112	-11.707803	13.852986	-10.806912	61.533911	137.459795	87.675320	-0.565844	15.645814	16.332211	-5.321161	178.256594	-0.405086	2.021270	-9.321758	-7.749533
2.510204	-7.368650	-26.093650	86.602517	0.238822	0.868842	0.560439	20.448664	-5.153730	12.098357	2.001912	0.034940	11.958060	-12.404790	0.000000	20.732949	3.716857	-1.330588	2.775445	0.048441	9.436346	-4.411312	0.000000	0.610554	-0.786393	0.077211	1.133861	-1.045902	0.082037	1.003080	-1.912035	0.082037	0.697803	-1.912035	0.067560	0.566961	-1.603612	0.062734	0.348871	-1.218122	0.057908	4.361129	-8.895832	0.429425	0.000000	0.000000	28.400128	3.139414	-11.442046	13.923375	-11.227153	60.775540	137.769042	87.880087	-0.576548	15.475724	16.251071	-3.864979	182.513674	-0.514091	2.223260	-10.214831	-8.707793
2.530612	-6.730453	-24.255868	87.007028	0.236895	0.874034	0.553250	17.924482	-4.897389	11.933809	1.728812	0.030173	11.195713	-12.622557	0.000000	18.234902	3.549826	-0.946397	2.559545	0.044672	8.517275	-5.122918	0.000000	0.649864	-0.676859	0.189154	1.206863	-0.900223	0.200976	1.067662	-1.645716	0.200976	0.742730	-1.645716	0.165509	0.603464	-1.380252	0.153687	0.371332	-1.048455	0.141865	4.641914	-7.656769	1.052016	0.000000	0.000000	28.407986	2.096737	-11.677484	14.011460	-11.585843	59.966427	138.078295	88.171349	-0.458166	15.303038	16.087360	-2.660568	183.964512	-0.149102	4.386909	-11.366310	-9.725766
2.551020	-6.269635	-22.386292	87.238128	0.235313	0.878990	0.546431	15.520494	-4.691099	11.411357	1.645458	0.028719	10.796757	-12.138503	0.000000	15.727707	3.420925	-0.834745	2.310423	0.040324	7.707174	-5.632817	0.000000	0.683218	-0.591334	0.309357	1.268804	-0.786475	0.328692	1.122459	-1.437770	0.328692	0.780850	-1.437770	0.270687	0.634436	-1.205849	0.251352	0.390391	-0.915977	0.232018	4.880157	-6.689292	1.720549	0.000000	0.000000	28.416388	1.184242	-12.216232	14.133322	-11.824080	59.132709	138.365712	88.624145	-0.217480	15.112210	15.828322	-1.758953	182.081030	0.673516	8.878960	-12.513794	-10.585150
2.571429	-5.888673	-20.516242	87.453750	0.233924	0.883694	0.539972	13.177730	-4.491312	10.656639	1.657953	0.028937	10.699536	-11.302170	0.000000	13.256486	3.287404	-1.095346	2.083601	0.036366	7.139645	-5.558761	0.000000	0.711386	-0.521082	0.412456	1.321115	-0.693039	0.438235	1.168736	-1.266958	0.438235	0.813043	-1.266958	0.360899	0.660593	-1.062590	0.335121	0.406486	-0.807156	0.309342	5.081360	-5.894580	2.293957	0.000000	0.000000	28.419279	0.512703	-12.913971	14.305806	-11.962604	58.339044	138.631443	89.321115	0.057831	14.871383	15.886405	-0.720411	185.096659	0.398074	8.594744	-13.072326	-11.689118
